<svg width="1198" height="191" viewBox="0 0 1198 191" fill="none" xmlns="http://www.w3.org/2000/svg">
<path d="M3.54473e-05 165.753L92.3706 61.576L86.3706 56.076C86.3706 56.076 92.3706 13.076 40.3706 25.076C60.3706 -8.92403 95.0373 -0.257365 106.871 5.07597L145.371 33.576C145.371 33.576 134.871 44.576 156.871 57.576L163.371 50.076L182.371 64.6685L156.871 98.076L137.871 83.576L144.371 74.076L129.371 64.6685L114.871 76.576L107.871 72.076L31.3706 188.576L3.54473e-05 165.753Z" fill="#F97316"/>
<path d="M221.371 188.943V0H243.562V79.6904H275.548V0H297.739V188.943H275.548V104.369H243.562V188.943H221.371Z" fill="#F97316"/>
<path d="M359.514 191C355.915 191 352.317 190.486 348.718 189.458C345.12 188.601 341.788 186.973 338.723 184.573C335.657 182.174 332.925 179.175 330.526 175.576C328.26 171.806 326.394 167.778 324.928 163.494C323.595 159.21 322.662 154.754 322.129 150.127C321.596 145.499 321.33 140.872 321.33 136.245V0H343.521V136.245C343.521 138.473 343.587 140.786 343.72 143.186C343.987 145.414 344.32 147.642 344.72 149.869C345.253 151.926 345.92 153.983 346.719 156.039C347.519 158.096 348.518 159.981 349.718 161.694C351.051 163.237 352.583 164.437 354.316 165.293C356.049 165.979 357.781 166.322 359.514 166.322C361.247 166.322 362.979 165.979 364.712 165.293C366.444 164.437 367.911 163.237 369.11 161.694C370.443 159.981 371.509 158.096 372.309 156.039C373.108 153.983 373.708 151.926 374.108 149.869C374.641 147.642 374.974 145.414 375.108 143.186C375.374 140.786 375.507 138.473 375.507 136.245V0H397.698V136.245C397.698 140.872 397.432 145.499 396.899 150.127C396.366 154.754 395.366 159.21 393.9 163.494C392.567 167.778 390.701 171.806 388.302 175.576C386.036 179.175 383.371 182.174 380.305 184.573C377.24 186.973 373.908 188.601 370.31 189.458C366.711 190.486 363.113 191 359.514 191Z" fill="#F97316"/>
<path d="M417.89 188.943V0H441.48L459.473 92.8008L477.466 0H501.056V188.943H480.264V151.155C480.264 142.415 480.331 133.674 480.464 124.934C480.598 116.194 480.864 107.539 481.264 98.9704C481.664 90.2301 482.064 81.4899 482.464 72.7497C482.997 64.0094 483.463 55.2692 483.863 46.5289L467.07 132.132H451.876L435.083 46.5289C435.483 55.2692 435.883 64.0094 436.283 72.7497C436.816 81.4899 437.282 90.2301 437.682 98.9704C438.082 107.539 438.348 116.194 438.482 124.934C438.615 133.674 438.682 142.415 438.682 151.155V188.943H417.89Z" fill="#F97316"/>
<path d="M517.849 188.943V0H541.439L559.432 92.8008L577.425 0H601.015V188.943H580.224V151.155C580.224 142.415 580.29 133.674 580.423 124.934C580.557 116.194 580.823 107.539 581.223 98.9704C581.623 90.2301 582.023 81.4899 582.423 72.7497C582.956 64.0094 583.422 55.2692 583.822 46.5289L567.029 132.132H551.835L535.042 46.5289C535.442 55.2692 535.842 64.0094 536.242 72.7497C536.775 81.4899 537.241 90.2301 537.641 98.9704C538.041 107.539 538.307 116.194 538.441 124.934C538.574 133.674 538.641 142.415 538.641 151.155V188.943H517.849Z" fill="#F97316"/>
<path d="M622.806 188.943V0H697.575V24.6783H644.997V78.4051H686.18V103.083H644.997V164.265H697.575V188.943H622.806Z" fill="#F97316"/>
<path d="M721.166 188.943V0H760.35C764.081 0 767.747 0.599818 771.345 1.79945C775.077 2.82771 778.542 4.62718 781.741 7.19785C784.94 9.7685 787.672 13.0247 789.938 16.9663C792.337 20.7367 794.202 24.8497 795.535 29.3055C796.868 33.7613 797.801 38.3885 798.334 43.1871C798.867 47.9856 799.134 52.7842 799.134 57.5828C799.134 63.0668 798.801 68.5509 798.134 74.035C797.468 79.3477 796.202 84.489 794.336 89.4589C792.603 94.2575 790.204 98.6276 787.139 102.569C784.073 106.34 780.608 109.339 776.743 111.567C779.542 117.393 782.207 123.392 784.74 129.561C787.405 135.731 789.738 142.072 791.737 148.584C793.869 154.925 795.602 161.523 796.935 168.378C798.401 175.062 799.134 181.917 799.134 188.943H776.943C776.943 182.26 776.143 175.662 774.544 169.149C773.078 162.466 771.212 156.125 768.946 150.127C766.814 143.957 764.348 137.959 761.549 132.132C758.884 126.305 756.085 120.65 753.153 115.166H743.357V188.943H721.166ZM743.357 90.4872H760.35C762.216 90.4872 764.015 90.0588 765.747 89.2019C767.613 88.1736 769.213 86.8026 770.546 85.0888C771.878 83.375 772.944 81.4042 773.744 79.1763C774.544 76.777 775.144 74.4634 775.543 72.2355C776.077 69.8362 776.41 67.437 776.543 65.0377C776.81 62.467 776.943 59.9821 776.943 57.5828C776.943 55.1835 776.81 52.7842 776.543 50.3849C776.41 47.8143 776.077 45.415 775.543 43.1871C775.144 40.7878 774.544 38.4742 773.744 36.2463C772.944 33.847 771.878 31.7905 770.546 30.0767C769.213 28.3629 767.613 27.0776 765.747 26.2207C764.015 25.1925 762.216 24.6783 760.35 24.6783H743.357V90.4872Z" fill="#F97316"/>
<path d="M827.122 188.943V0H849.313V164.265H898.693V188.943H827.122Z" fill="#F97316"/>
<path d="M984.658 188.943H933.879V164.265H948.073V24.6783H933.879V0H984.658V24.6783H970.464V164.265H984.658V188.943Z" fill="#F97316"/>
<path d="M1021.04 188.943V0H1048.23L1075.22 74.035V0H1097.41V188.943H1075.22V131.361L1043.23 43.9583V188.943H1021.04Z" fill="#F97316"/>
<path d="M1122.6 188.943V0H1197.37V24.6783H1144.79V78.4051H1185.98V103.083H1144.79V164.265H1197.37V188.943H1122.6Z" fill="#F97316"/>
</svg>
